<mxfile host="app.diagrams.net" modified="2024-04-13T09:52:46.991Z" agent="Mozilla/5.0 (Windows NT 10.0; Win64; x64) AppleWebKit/537.36 (KHTML, like Gecko) Chrome/112.0.0.0 Safari/537.36" etag="cq1553mP9-RibvGZR6Pv" version="24.2.3" type="github">
  <diagram name="第 1 页" id="qwv7KuyluWp2oeQNMtY5">
    <mxGraphModel dx="2860" dy="999" grid="1" gridSize="10" guides="1" tooltips="1" connect="1" arrows="1" fold="1" page="1" pageScale="1" pageWidth="1169" pageHeight="1654" math="0" shadow="0">
      <root>
        <mxCell id="0" />
        <mxCell id="1" parent="0" />
        <mxCell id="Aoa-woAd7rRabKDpotsu-19" value="" style="endArrow=classic;html=1;rounded=0;hachureGap=4;fontFamily=Architects Daughter;fontSource=https://fonts.googleapis.com/css?family=Architects+Daughter;strokeWidth=5;entryX=0;entryY=0.5;entryDx=0;entryDy=0;exitX=1;exitY=0.5;exitDx=0;exitDy=0;" parent="1" source="Aoa-woAd7rRabKDpotsu-18" target="Aoa-woAd7rRabKDpotsu-14" edge="1">
          <mxGeometry width="50" height="50" relative="1" as="geometry">
            <mxPoint x="320" y="1110" as="sourcePoint" />
            <mxPoint x="243" y="1213" as="targetPoint" />
          </mxGeometry>
        </mxCell>
        <mxCell id="NaeF6okpQfYcXMHPY63D-1" value="" style="ellipse;whiteSpace=wrap;html=1;aspect=fixed;strokeWidth=2.5;fillColor=#ffe6cc;strokeColor=#d79b00;fontFamily=Times New Roman;fontSize=50;hachureGap=4;fontSource=https%3A%2F%2Ffonts.googleapis.com%2Fcss%3Ffamily%3DArchitects%2BDaughter;opacity=60;" parent="1" vertex="1">
          <mxGeometry x="1640" y="1412.86" width="94.27" height="94.27" as="geometry" />
        </mxCell>
        <mxCell id="Aoa-woAd7rRabKDpotsu-2" value="" style="ellipse;whiteSpace=wrap;html=1;aspect=fixed;strokeWidth=7;fillColor=none;strokeColor=#9673a6;fontFamily=Times New Roman;fontSize=50;hachureGap=4;fontSource=https://fonts.googleapis.com/css?family=Architects+Daughter;" parent="1" vertex="1">
          <mxGeometry x="715" y="1332.85" width="120" height="120" as="geometry" />
        </mxCell>
        <mxCell id="Aoa-woAd7rRabKDpotsu-3" value="" style="ellipse;whiteSpace=wrap;html=1;aspect=fixed;strokeWidth=2.5;fillColor=#e1d5e7;strokeColor=#9673a6;fontFamily=Times New Roman;fontSize=50;hachureGap=4;fontSource=https://fonts.googleapis.com/css?family=Architects+Daughter;opacity=60;" parent="1" vertex="1">
          <mxGeometry x="725.71" y="1342.8500000000004" width="98.58" height="98.58" as="geometry" />
        </mxCell>
        <mxCell id="Aoa-woAd7rRabKDpotsu-4" value="" style="endArrow=classic;html=1;rounded=0;hachureGap=4;fontFamily=Architects Daughter;fontSource=https%3A%2F%2Ffonts.googleapis.com%2Fcss%3Ffamily%3DArchitects%2BDaughter;strokeWidth=5;entryX=0.093;entryY=0.21;entryDx=0;entryDy=0;entryPerimeter=0;exitX=1.008;exitY=0.658;exitDx=0;exitDy=0;exitPerimeter=0;" parent="1" edge="1" target="Aoa-woAd7rRabKDpotsu-2" source="Aoa-woAd7rRabKDpotsu-1">
          <mxGeometry width="50" height="50" relative="1" as="geometry">
            <mxPoint x="609.3621828015334" y="1290.000816126433" as="sourcePoint" />
            <mxPoint x="720" y="1360" as="targetPoint" />
          </mxGeometry>
        </mxCell>
        <mxCell id="Aoa-woAd7rRabKDpotsu-5" value="" style="ellipse;whiteSpace=wrap;html=1;aspect=fixed;strokeWidth=2.5;fillColor=#e1d5e7;strokeColor=#9673a6;fontFamily=Times New Roman;fontSize=50;hachureGap=4;fontSource=https://fonts.googleapis.com/css?family=Architects+Daughter;opacity=60;" parent="1" vertex="1">
          <mxGeometry x="360" y="1439.99" width="100" height="100" as="geometry" />
        </mxCell>
        <mxCell id="Aoa-woAd7rRabKDpotsu-6" value="" style="ellipse;whiteSpace=wrap;html=1;aspect=fixed;strokeWidth=7;fillColor=none;strokeColor=#9673a6;fontFamily=Times New Roman;fontSize=50;hachureGap=4;fontSource=https://fonts.googleapis.com/css?family=Architects+Daughter;" parent="1" vertex="1">
          <mxGeometry x="350.00000000000006" y="1429.9900000000002" width="120" height="120" as="geometry" />
        </mxCell>
        <mxCell id="Aoa-woAd7rRabKDpotsu-7" value="" style="endArrow=classic;html=1;rounded=0;hachureGap=4;fontFamily=Architects Daughter;fontSource=https://fonts.googleapis.com/css?family=Architects+Daughter;exitX=0.242;exitY=0.95;exitDx=0;exitDy=0;exitPerimeter=0;strokeWidth=5;" parent="1" source="Aoa-woAd7rRabKDpotsu-1" target="Aoa-woAd7rRabKDpotsu-6" edge="1">
          <mxGeometry width="50" height="50" relative="1" as="geometry">
            <mxPoint x="790" y="1290" as="sourcePoint" />
            <mxPoint x="733" y="1185" as="targetPoint" />
          </mxGeometry>
        </mxCell>
        <mxCell id="Aoa-woAd7rRabKDpotsu-8" value="" style="ellipse;whiteSpace=wrap;html=1;aspect=fixed;strokeWidth=5;fillColor=none;strokeColor=#d79b00;fontFamily=Times New Roman;fontSize=50;hachureGap=4;fontSource=https://fonts.googleapis.com/css?family=Architects+Daughter;" parent="1" vertex="1">
          <mxGeometry x="535" y="1452.8500000000001" width="120" height="120" as="geometry" />
        </mxCell>
        <mxCell id="Aoa-woAd7rRabKDpotsu-9" value="" style="ellipse;whiteSpace=wrap;html=1;aspect=fixed;strokeWidth=2.5;fillColor=#ffe6cc;strokeColor=#d79b00;fontFamily=Times New Roman;fontSize=50;hachureGap=4;fontSource=https://fonts.googleapis.com/css?family=Architects+Daughter;opacity=60;" parent="1" vertex="1">
          <mxGeometry x="491.4299999999999" y="1221.4299999999998" width="97.15" height="97.15" as="geometry" />
        </mxCell>
        <mxCell id="Aoa-woAd7rRabKDpotsu-10" value="" style="endArrow=classic;html=1;rounded=0;hachureGap=4;fontFamily=Architects Daughter;fontSource=https://fonts.googleapis.com/css?family=Architects+Daughter;strokeWidth=5;fillColor=#ffe6cc;strokeColor=#d79b00;dashed=1;exitX=0.625;exitY=1;exitDx=0;exitDy=0;exitPerimeter=0;" parent="1" edge="1" source="Aoa-woAd7rRabKDpotsu-1">
          <mxGeometry width="50" height="50" relative="1" as="geometry">
            <mxPoint x="560" y="1324.08" as="sourcePoint" />
            <mxPoint x="590" y="1450" as="targetPoint" />
          </mxGeometry>
        </mxCell>
        <mxCell id="Aoa-woAd7rRabKDpotsu-11" value="" style="endArrow=classic;html=1;rounded=0;hachureGap=4;fontFamily=Architects Daughter;fontSource=https://fonts.googleapis.com/css?family=Architects+Daughter;strokeWidth=5;exitX=0;exitY=0.5;exitDx=0;exitDy=0;" parent="1" edge="1">
          <mxGeometry width="50" height="50" relative="1" as="geometry">
            <mxPoint x="480" y="1279" as="sourcePoint" />
            <mxPoint x="330" y="1340" as="targetPoint" />
          </mxGeometry>
        </mxCell>
        <mxCell id="Aoa-woAd7rRabKDpotsu-12" value="" style="ellipse;whiteSpace=wrap;html=1;aspect=fixed;strokeWidth=7;fillColor=none;strokeColor=#9673a6;fontFamily=Times New Roman;fontSize=50;hachureGap=4;fontSource=https://fonts.googleapis.com/css?family=Architects+Daughter;" parent="1" vertex="1">
          <mxGeometry x="218.57999999999998" y="1311.43" width="120" height="120" as="geometry" />
        </mxCell>
        <mxCell id="Aoa-woAd7rRabKDpotsu-13" value="" style="ellipse;whiteSpace=wrap;html=1;aspect=fixed;strokeWidth=2.5;fillColor=#e1d5e7;strokeColor=#9673a6;fontFamily=Times New Roman;fontSize=50;hachureGap=4;fontSource=https://fonts.googleapis.com/css?family=Architects+Daughter;opacity=60;" parent="1" vertex="1">
          <mxGeometry x="228.57999999999998" y="1321.43" width="100" height="100" as="geometry" />
        </mxCell>
        <mxCell id="Aoa-woAd7rRabKDpotsu-15" value="" style="ellipse;whiteSpace=wrap;html=1;aspect=fixed;strokeWidth=2.5;fillColor=#e1d5e7;strokeColor=#9673a6;fontFamily=Times New Roman;fontSize=50;hachureGap=4;fontSource=https://fonts.googleapis.com/css?family=Architects+Daughter;opacity=60;" parent="1" vertex="1">
          <mxGeometry x="1597.15" y="820" width="102.85" height="102.85" as="geometry" />
        </mxCell>
        <mxCell id="Aoa-woAd7rRabKDpotsu-16" value="" style="endArrow=classic;html=1;rounded=0;hachureGap=4;fontFamily=Architects Daughter;fontSource=https://fonts.googleapis.com/css?family=Architects+Daughter;strokeWidth=5;entryX=0;entryY=1;entryDx=0;entryDy=0;exitX=0.744;exitY=0.062;exitDx=0;exitDy=0;exitPerimeter=0;" parent="1" source="Aoa-woAd7rRabKDpotsu-1" target="Aoa-woAd7rRabKDpotsu-14" edge="1">
          <mxGeometry width="50" height="50" relative="1" as="geometry">
            <mxPoint x="660" y="1190" as="sourcePoint" />
            <mxPoint x="959.2178171984667" y="1217.339183873567" as="targetPoint" />
          </mxGeometry>
        </mxCell>
        <mxCell id="Aoa-woAd7rRabKDpotsu-17" value="" style="ellipse;whiteSpace=wrap;html=1;aspect=fixed;strokeWidth=2.5;fillColor=#e1d5e7;strokeColor=#9673a6;fontFamily=Times New Roman;fontSize=50;hachureGap=4;fontSource=https://fonts.googleapis.com/css?family=Architects+Daughter;opacity=60;" parent="1" vertex="1">
          <mxGeometry x="70.00000000000011" y="607.1500000000001" width="102.85" height="102.85" as="geometry" />
        </mxCell>
        <mxCell id="Aoa-woAd7rRabKDpotsu-18" value="" style="ellipse;whiteSpace=wrap;html=1;aspect=fixed;strokeWidth=7;fillColor=none;strokeColor=#9673a6;fontFamily=Times New Roman;fontSize=50;hachureGap=4;fontSource=https://fonts.googleapis.com/css?family=Architects+Daughter;" parent="1" vertex="1">
          <mxGeometry x="339.99999999999994" y="1041.42" width="120" height="120" as="geometry" />
        </mxCell>
        <mxCell id="Aoa-woAd7rRabKDpotsu-20" value="" style="ellipse;whiteSpace=wrap;html=1;aspect=fixed;strokeWidth=2.5;fillColor=#e1d5e7;strokeColor=#9673a6;fontFamily=Times New Roman;fontSize=50;hachureGap=4;fontSource=https://fonts.googleapis.com/css?family=Architects+Daughter;opacity=60;" parent="1" vertex="1">
          <mxGeometry x="585" y="580" width="102.85" height="102.85" as="geometry" />
        </mxCell>
        <mxCell id="Aoa-woAd7rRabKDpotsu-23" value="" style="ellipse;whiteSpace=wrap;html=1;aspect=fixed;strokeWidth=2.5;fillColor=#e1d5e7;strokeColor=#9673a6;fontFamily=Times New Roman;fontSize=50;hachureGap=4;fontSource=https://fonts.googleapis.com/css?family=Architects+Daughter;opacity=60;" parent="1" vertex="1">
          <mxGeometry x="1850" y="1050" width="102.85" height="102.85" as="geometry" />
        </mxCell>
        <mxCell id="Aoa-woAd7rRabKDpotsu-27" value="" style="ellipse;whiteSpace=wrap;html=1;aspect=fixed;strokeWidth=2.5;fillColor=#e1d5e7;strokeColor=#9673a6;fontFamily=Times New Roman;fontSize=50;hachureGap=4;fontSource=https://fonts.googleapis.com/css?family=Architects+Daughter;opacity=60;" parent="1" vertex="1">
          <mxGeometry x="920" y="1370" width="100" height="100" as="geometry" />
        </mxCell>
        <mxCell id="Aoa-woAd7rRabKDpotsu-28" value="" style="endArrow=classic;html=1;rounded=0;hachureGap=4;fontFamily=Architects Daughter;fontSource=https://fonts.googleapis.com/css?family=Architects+Daughter;strokeWidth=5;entryX=0.001;entryY=0.562;entryDx=0;entryDy=0;exitX=0.725;exitY=0.044;exitDx=0;exitDy=0;entryPerimeter=0;exitPerimeter=0;" parent="1" source="Aoa-woAd7rRabKDpotsu-14" target="Aoa-woAd7rRabKDpotsu-21" edge="1">
          <mxGeometry width="50" height="50" relative="1" as="geometry">
            <mxPoint x="1100" y="950" as="sourcePoint" />
            <mxPoint x="1279" y="940" as="targetPoint" />
          </mxGeometry>
        </mxCell>
        <mxCell id="Aoa-woAd7rRabKDpotsu-29" value="" style="endArrow=classic;html=1;rounded=0;hachureGap=4;fontFamily=Architects Daughter;fontSource=https://fonts.googleapis.com/css?family=Architects+Daughter;strokeWidth=5;exitX=0.962;exitY=0.738;exitDx=0;exitDy=0;exitPerimeter=0;entryX=0.025;entryY=0.3;entryDx=0;entryDy=0;entryPerimeter=0;" parent="1" target="Aoa-woAd7rRabKDpotsu-22" edge="1">
          <mxGeometry width="50" height="50" relative="1" as="geometry">
            <mxPoint x="740" y="1087.1599999999999" as="sourcePoint" />
            <mxPoint x="860" y="1140" as="targetPoint" />
          </mxGeometry>
        </mxCell>
        <mxCell id="Aoa-woAd7rRabKDpotsu-30" value="" style="endArrow=classic;html=1;rounded=0;hachureGap=4;fontFamily=Architects Daughter;fontSource=https://fonts.googleapis.com/css?family=Architects+Daughter;strokeWidth=5;entryX=1;entryY=1;entryDx=0;entryDy=0;exitX=0.734;exitY=0.071;exitDx=0;exitDy=0;exitPerimeter=0;" parent="1" source="Aoa-woAd7rRabKDpotsu-22" target="Aoa-woAd7rRabKDpotsu-21" edge="1">
          <mxGeometry width="50" height="50" relative="1" as="geometry">
            <mxPoint x="1170" y="970" as="sourcePoint" />
            <mxPoint x="1285" y="879" as="targetPoint" />
          </mxGeometry>
        </mxCell>
        <mxCell id="Aoa-woAd7rRabKDpotsu-31" value="" style="endArrow=classic;html=1;rounded=0;hachureGap=4;fontFamily=Architects Daughter;fontSource=https://fonts.googleapis.com/css?family=Architects+Daughter;strokeWidth=5;exitX=0.976;exitY=0.699;exitDx=0;exitDy=0;exitPerimeter=0;entryX=0.036;entryY=0.33;entryDx=0;entryDy=0;entryPerimeter=0;" parent="1" source="Aoa-woAd7rRabKDpotsu-22" target="Aoa-woAd7rRabKDpotsu-25" edge="1">
          <mxGeometry width="50" height="50" relative="1" as="geometry">
            <mxPoint x="1160" y="1040" as="sourcePoint" />
            <mxPoint x="1110" y="1110" as="targetPoint" />
          </mxGeometry>
        </mxCell>
        <mxCell id="Aoa-woAd7rRabKDpotsu-32" value="" style="endArrow=classic;html=1;rounded=0;hachureGap=4;fontFamily=Architects Daughter;fontSource=https://fonts.googleapis.com/css?family=Architects+Daughter;strokeWidth=5;exitX=0;exitY=1;exitDx=0;exitDy=0;" parent="1" source="Aoa-woAd7rRabKDpotsu-25" edge="1" target="Aoa-woAd7rRabKDpotsu-26">
          <mxGeometry width="50" height="50" relative="1" as="geometry">
            <mxPoint x="1117.5735931288073" y="1271.4164068711927" as="sourcePoint" />
            <mxPoint x="1060" y="1357.57" as="targetPoint" />
          </mxGeometry>
        </mxCell>
        <mxCell id="Aoa-woAd7rRabKDpotsu-36" value="&lt;font face=&quot;Times New Roman&quot;&gt;&lt;span style=&quot;font-size: 38px;&quot;&gt;&lt;b&gt;整数&lt;/b&gt;&lt;/span&gt;&lt;/font&gt;" style="text;html=1;align=center;verticalAlign=middle;resizable=0;points=[];autosize=1;strokeColor=none;fillColor=none;fontFamily=Architects Daughter;fontSource=https://fonts.googleapis.com/css?family=Architects+Daughter;" parent="1" vertex="1">
          <mxGeometry x="725.7099999999999" y="1362.8500000000001" width="100" height="60" as="geometry" />
        </mxCell>
        <mxCell id="Aoa-woAd7rRabKDpotsu-37" value="" style="endArrow=classic;html=1;rounded=0;hachureGap=4;fontFamily=Architects Daughter;fontSource=https://fonts.googleapis.com/css?family=Architects+Daughter;strokeWidth=5;entryX=0.5;entryY=0;entryDx=0;entryDy=0;" parent="1" edge="1" target="Aoa-woAd7rRabKDpotsu-2">
          <mxGeometry width="50" height="50" relative="1" as="geometry">
            <mxPoint x="710" y="1120" as="sourcePoint" />
            <mxPoint x="775.14" y="1343.56" as="targetPoint" />
          </mxGeometry>
        </mxCell>
        <mxCell id="Aoa-woAd7rRabKDpotsu-38" value="&lt;font face=&quot;Times New Roman&quot;&gt;&lt;span style=&quot;font-size: 38px;&quot;&gt;&lt;b&gt;有理数&lt;/b&gt;&lt;/span&gt;&lt;/font&gt;" style="text;html=1;align=center;verticalAlign=middle;resizable=0;points=[];autosize=1;strokeColor=none;fillColor=none;fontFamily=Architects Daughter;fontSource=https://fonts.googleapis.com/css?family=Architects+Daughter;" parent="1" vertex="1">
          <mxGeometry x="208.58" y="1342.8500000000001" width="140" height="60" as="geometry" />
        </mxCell>
        <mxCell id="Aoa-woAd7rRabKDpotsu-39" value="&lt;font face=&quot;Times New Roman&quot;&gt;&lt;span style=&quot;font-size: 38px;&quot;&gt;&lt;b&gt;分数&lt;/b&gt;&lt;/span&gt;&lt;/font&gt;" style="text;html=1;align=center;verticalAlign=middle;resizable=0;points=[];autosize=1;strokeColor=none;fillColor=none;fontFamily=Architects Daughter;fontSource=https://fonts.googleapis.com/css?family=Architects+Daughter;" parent="1" vertex="1">
          <mxGeometry x="360" y="1464.2800000000002" width="100" height="60" as="geometry" />
        </mxCell>
        <mxCell id="Aoa-woAd7rRabKDpotsu-40" value="&lt;font color=&quot;#d79b00&quot; style=&quot;font-size: 35px;&quot; face=&quot;Times New Roman&quot;&gt;包含&lt;/font&gt;" style="text;html=1;align=center;verticalAlign=middle;resizable=0;points=[];autosize=1;strokeColor=none;fillColor=none;fontFamily=Architects Daughter;fontSource=https://fonts.googleapis.com/css?family=Architects+Daughter;rotation=70;" parent="1" vertex="1">
          <mxGeometry x="556.4300000000001" y="1352.85" width="90" height="60" as="geometry" />
        </mxCell>
        <mxCell id="Aoa-woAd7rRabKDpotsu-43" value="&lt;font face=&quot;Times New Roman&quot;&gt;&lt;span style=&quot;font-size: 35px;&quot;&gt;同义&lt;/span&gt;&lt;/font&gt;" style="text;html=1;align=center;verticalAlign=middle;resizable=0;points=[];autosize=1;strokeColor=none;fillColor=none;fontFamily=Architects Daughter;fontSource=https://fonts.googleapis.com/css?family=Architects+Daughter;rotation=-95;" parent="1" vertex="1">
          <mxGeometry x="930.0046318182854" y="1020.0012335360839" width="90" height="60" as="geometry" />
        </mxCell>
        <mxCell id="Aoa-woAd7rRabKDpotsu-44" value="&lt;font face=&quot;Times New Roman&quot;&gt;&lt;span style=&quot;font-size: 35px;&quot;&gt;属性&lt;/span&gt;&lt;/font&gt;" style="text;html=1;align=center;verticalAlign=middle;resizable=0;points=[];autosize=1;strokeColor=none;fillColor=none;fontFamily=Architects Daughter;fontSource=https://fonts.googleapis.com/css?family=Architects+Daughter;rotation=-35;" parent="1" vertex="1">
          <mxGeometry x="699.9984005853781" y="922.8457942155574" width="90" height="60" as="geometry" />
        </mxCell>
        <mxCell id="Aoa-woAd7rRabKDpotsu-46" value="&lt;font face=&quot;Times New Roman&quot;&gt;&lt;span style=&quot;font-size: 35px;&quot;&gt;反义&lt;/span&gt;&lt;/font&gt;" style="text;html=1;align=center;verticalAlign=middle;resizable=0;points=[];autosize=1;strokeColor=none;fillColor=none;fontFamily=Architects Daughter;fontSource=https://fonts.googleapis.com/css?family=Architects+Daughter;rotation=30;" parent="1" vertex="1">
          <mxGeometry x="999.998400585378" y="1169.9957942155572" width="90" height="60" as="geometry" />
        </mxCell>
        <mxCell id="Aoa-woAd7rRabKDpotsu-48" value="&lt;font face=&quot;Times New Roman&quot;&gt;&lt;span style=&quot;font-size: 35px;&quot;&gt;先决&lt;/span&gt;&lt;/font&gt;" style="text;html=1;align=center;verticalAlign=middle;resizable=0;points=[];autosize=1;strokeColor=none;fillColor=none;fontFamily=Architects Daughter;fontSource=https://fonts.googleapis.com/css?family=Architects+Daughter;rotation=70;" parent="1" vertex="1">
          <mxGeometry x="729.998400585378" y="1191.4257942155575" width="90" height="60" as="geometry" />
        </mxCell>
        <mxCell id="Aoa-woAd7rRabKDpotsu-49" value="&lt;font style=&quot;font-size: 35px;&quot; face=&quot;Times New Roman&quot;&gt;包含&lt;/font&gt;" style="text;html=1;align=center;verticalAlign=middle;resizable=0;points=[];autosize=1;strokeColor=none;fillColor=none;fontFamily=Architects Daughter;fontSource=https://fonts.googleapis.com/css?family=Architects+Daughter;rotation=30;" parent="1" vertex="1">
          <mxGeometry x="609.9946318182855" y="1261.431233536084" width="90" height="60" as="geometry" />
        </mxCell>
        <mxCell id="Aoa-woAd7rRabKDpotsu-50" value="&lt;font face=&quot;Times New Roman&quot;&gt;&lt;span style=&quot;font-size: 35px;&quot;&gt;先决&lt;/span&gt;&lt;/font&gt;" style="text;html=1;align=center;verticalAlign=middle;resizable=0;points=[];autosize=1;strokeColor=none;fillColor=none;fontFamily=Architects Daughter;fontSource=https://fonts.googleapis.com/css?family=Architects+Daughter;rotation=-10;" parent="1" vertex="1">
          <mxGeometry x="480.00076211353326" y="1030.0011431702997" width="90" height="60" as="geometry" />
        </mxCell>
        <mxCell id="Aoa-woAd7rRabKDpotsu-52" value="&lt;font style=&quot;font-size: 35px;&quot; face=&quot;Times New Roman&quot;&gt;包含&lt;/font&gt;" style="text;html=1;align=center;verticalAlign=middle;resizable=0;points=[];autosize=1;strokeColor=none;fillColor=none;fontFamily=Architects Daughter;fontSource=https://fonts.googleapis.com/css?family=Architects+Daughter;rotation=-20;" parent="1" vertex="1">
          <mxGeometry x="365.0011431702998" y="1251.4307621135333" width="90" height="60" as="geometry" />
        </mxCell>
        <mxCell id="Aoa-woAd7rRabKDpotsu-53" value="&lt;font style=&quot;font-size: 35px;&quot; face=&quot;Times New Roman&quot;&gt;包含&lt;/font&gt;" style="text;html=1;align=center;verticalAlign=middle;resizable=0;points=[];autosize=1;strokeColor=none;fillColor=none;fontFamily=Architects Daughter;fontSource=https://fonts.googleapis.com/css?family=Architects+Daughter;rotation=-55;" parent="1" vertex="1">
          <mxGeometry x="1754.0011431702997" y="1369.9907621135333" width="90" height="60" as="geometry" />
        </mxCell>
        <mxCell id="Aoa-woAd7rRabKDpotsu-56" value="&lt;font size=&quot;1&quot; face=&quot;Times New Roman&quot;&gt;&lt;b style=&quot;font-size: 58px;&quot;&gt;÷&lt;/b&gt;&lt;/font&gt;" style="text;html=1;align=center;verticalAlign=middle;resizable=0;points=[];autosize=1;strokeColor=none;fillColor=none;fontFamily=Architects Daughter;fontSource=https://fonts.googleapis.com/css?family=Architects+Daughter;" parent="1" vertex="1">
          <mxGeometry x="942.14" y="1380" width="60" height="80" as="geometry" />
        </mxCell>
        <mxCell id="Ah3Ik2fwoMhvkdG_yOov-2" value="" style="ellipse;whiteSpace=wrap;html=1;aspect=fixed;strokeWidth=2.5;fillColor=#e1d5e7;strokeColor=#9673a6;fontFamily=Times New Roman;fontSize=50;hachureGap=4;fontSource=https://fonts.googleapis.com/css?family=Architects+Daughter;opacity=60;" parent="1" vertex="1">
          <mxGeometry x="1780" y="1290" width="100" height="100" as="geometry" />
        </mxCell>
        <mxCell id="Ah3Ik2fwoMhvkdG_yOov-3" value="" style="ellipse;whiteSpace=wrap;html=1;aspect=fixed;strokeWidth=2.5;fillColor=#e1d5e7;strokeColor=#9673a6;fontFamily=Times New Roman;fontSize=50;hachureGap=4;fontSource=https://fonts.googleapis.com/css?family=Architects+Daughter;opacity=60;" parent="1" vertex="1">
          <mxGeometry x="870" y="1120" width="100" height="100" as="geometry" />
        </mxCell>
        <mxCell id="Aoa-woAd7rRabKDpotsu-55" value="&lt;font style=&quot;font-size: 38px;&quot; face=&quot;Times New Roman&quot;&gt;&lt;b&gt;除号&lt;/b&gt;&lt;/font&gt;" style="text;html=1;align=center;verticalAlign=middle;resizable=0;points=[];autosize=1;strokeColor=none;fillColor=none;fontFamily=Architects Daughter;fontSource=https://fonts.googleapis.com/css?family=Architects+Daughter;" parent="1" vertex="1">
          <mxGeometry x="-60" y="610" width="100" height="60" as="geometry" />
        </mxCell>
        <mxCell id="Ah3Ik2fwoMhvkdG_yOov-4" value="" style="ellipse;whiteSpace=wrap;html=1;aspect=fixed;strokeWidth=2.5;fillColor=#e1d5e7;strokeColor=#9673a6;fontFamily=Times New Roman;fontSize=50;hachureGap=4;fontSource=https://fonts.googleapis.com/css?family=Architects+Daughter;opacity=60;" parent="1" vertex="1">
          <mxGeometry x="1100" y="1221.43" width="100" height="100" as="geometry" />
        </mxCell>
        <mxCell id="Aoa-woAd7rRabKDpotsu-54" value="&lt;font style=&quot;font-size: 38px;&quot; face=&quot;Times New Roman&quot;&gt;&lt;b&gt;乘号&lt;/b&gt;&lt;/font&gt;" style="text;html=1;align=center;verticalAlign=middle;resizable=0;points=[];autosize=1;strokeColor=none;fillColor=none;fontFamily=Architects Daughter;fontSource=https://fonts.googleapis.com/css?family=Architects+Daughter;" parent="1" vertex="1">
          <mxGeometry x="870" y="1140" width="100" height="60" as="geometry" />
        </mxCell>
        <mxCell id="Ah3Ik2fwoMhvkdG_yOov-5" value="" style="ellipse;whiteSpace=wrap;html=1;aspect=fixed;strokeWidth=2.5;fillColor=#e1d5e7;strokeColor=#9673a6;fontFamily=Times New Roman;fontSize=50;hachureGap=4;fontSource=https://fonts.googleapis.com/css?family=Architects+Daughter;opacity=60;" parent="1" vertex="1">
          <mxGeometry x="845" y="860" width="100" height="100" as="geometry" />
        </mxCell>
        <mxCell id="Aoa-woAd7rRabKDpotsu-42" value="&lt;font size=&quot;1&quot; face=&quot;Times New Roman&quot;&gt;&lt;b style=&quot;font-size: 68px;&quot;&gt;*&lt;/b&gt;&lt;/font&gt;" style="text;html=1;align=center;verticalAlign=middle;resizable=0;points=[];autosize=1;strokeColor=none;fillColor=none;fontFamily=Architects Daughter;fontSource=https://fonts.googleapis.com/css?family=Architects+Daughter;" parent="1" vertex="1">
          <mxGeometry x="865" y="870" width="60" height="100" as="geometry" />
        </mxCell>
        <mxCell id="Ah3Ik2fwoMhvkdG_yOov-6" value="" style="ellipse;whiteSpace=wrap;html=1;aspect=fixed;strokeWidth=2.5;fillColor=#e1d5e7;strokeColor=#9673a6;fontFamily=Times New Roman;fontSize=50;hachureGap=4;fontSource=https://fonts.googleapis.com/css?family=Architects+Daughter;opacity=60;" parent="1" vertex="1">
          <mxGeometry x="630" y="1020" width="100" height="100" as="geometry" />
        </mxCell>
        <mxCell id="Aoa-woAd7rRabKDpotsu-33" value="&lt;font style=&quot;font-size: 38px;&quot; face=&quot;Times New Roman&quot;&gt;&lt;b&gt;乘法&lt;/b&gt;&lt;/font&gt;" style="text;html=1;align=center;verticalAlign=middle;resizable=0;points=[];autosize=1;strokeColor=none;fillColor=none;fontFamily=Architects Daughter;fontSource=https%3A%2F%2Ffonts.googleapis.com%2Fcss%3Ffamily%3DArchitects%2BDaughter;" parent="1" vertex="1">
          <mxGeometry x="630" y="1040" width="100" height="60" as="geometry" />
        </mxCell>
        <mxCell id="Ah3Ik2fwoMhvkdG_yOov-7" value="" style="ellipse;whiteSpace=wrap;html=1;aspect=fixed;strokeWidth=2.5;fillColor=#e1d5e7;strokeColor=#9673a6;fontFamily=Times New Roman;fontSize=50;hachureGap=4;fontSource=https://fonts.googleapis.com/css?family=Architects+Daughter;opacity=60;" parent="1" vertex="1">
          <mxGeometry x="350" y="1051.42" width="100" height="100" as="geometry" />
        </mxCell>
        <mxCell id="Aoa-woAd7rRabKDpotsu-41" value="&lt;font face=&quot;Times New Roman&quot;&gt;&lt;span style=&quot;font-size: 38px;&quot;&gt;&lt;b&gt;方程&lt;/b&gt;&lt;/span&gt;&lt;/font&gt;" style="text;html=1;align=center;verticalAlign=middle;resizable=0;points=[];autosize=1;strokeColor=none;fillColor=none;fontFamily=Architects Daughter;fontSource=https://fonts.googleapis.com/css?family=Architects+Daughter;" parent="1" vertex="1">
          <mxGeometry x="349.99999999999994" y="1071.42" width="100" height="60" as="geometry" />
        </mxCell>
        <mxCell id="Ah3Ik2fwoMhvkdG_yOov-8" value="" style="ellipse;whiteSpace=wrap;html=1;aspect=fixed;strokeWidth=2.5;fillColor=#ffe6cc;strokeColor=#d79b00;fontFamily=Times New Roman;fontSize=50;hachureGap=4;fontSource=https://fonts.googleapis.com/css?family=Architects+Daughter;opacity=60;" parent="1" vertex="1">
          <mxGeometry x="546.4299999999998" y="1464.2800000000002" width="97.15" height="97.15" as="geometry" />
        </mxCell>
        <mxCell id="Aoa-woAd7rRabKDpotsu-35" value="&lt;font face=&quot;Times New Roman&quot;&gt;&lt;span style=&quot;font-size: 38px;&quot;&gt;&lt;b&gt;小数&lt;/b&gt;&lt;/span&gt;&lt;/font&gt;" style="text;html=1;align=center;verticalAlign=middle;resizable=0;points=[];autosize=1;strokeColor=none;fillColor=none;fontFamily=Architects Daughter;fontSource=https://fonts.googleapis.com/css?family=Architects+Daughter;" parent="1" vertex="1">
          <mxGeometry x="545" y="1482.85" width="100" height="60" as="geometry" />
        </mxCell>
        <mxCell id="Aoa-woAd7rRabKDpotsu-34" value="&lt;font face=&quot;Times New Roman&quot;&gt;&lt;span style=&quot;font-size: 38px;&quot;&gt;&lt;b&gt;数&lt;/b&gt;&lt;/span&gt;&lt;/font&gt;" style="text;html=1;align=center;verticalAlign=middle;resizable=0;points=[];autosize=1;strokeColor=none;fillColor=none;fontFamily=Architects Daughter;fontSource=https://fonts.googleapis.com/css?family=Architects+Daughter;" parent="1" vertex="1">
          <mxGeometry x="510" y="1240" width="60" height="60" as="geometry" />
        </mxCell>
        <mxCell id="sr5iCezXZ2-Iou8U5tZE-3" value="&lt;font style=&quot;font-size: 35px;&quot; face=&quot;Times New Roman&quot;&gt;包含&lt;/font&gt;" style="text;html=1;align=center;verticalAlign=middle;resizable=0;points=[];autosize=1;strokeColor=none;fillColor=none;fontFamily=Architects Daughter;fontSource=https://fonts.googleapis.com/css?family=Architects+Daughter;rotation=-60;" parent="1" vertex="1">
          <mxGeometry x="410.00123353608365" y="1330.0046318182854" width="90" height="60" as="geometry" />
        </mxCell>
        <mxCell id="Aoa-woAd7rRabKDpotsu-1" value="" style="ellipse;whiteSpace=wrap;html=1;aspect=fixed;strokeWidth=7;fillColor=none;strokeColor=#d79b00;fontFamily=Times New Roman;fontSize=50;hachureGap=4;fontSource=https://fonts.googleapis.com/css?family=Architects+Daughter;" parent="1" vertex="1">
          <mxGeometry x="480.00000000000006" y="1210" width="120" height="120" as="geometry" />
        </mxCell>
        <mxCell id="Aoa-woAd7rRabKDpotsu-14" value="" style="ellipse;whiteSpace=wrap;html=1;aspect=fixed;strokeWidth=7;fillColor=none;strokeColor=#9673a6;fontFamily=Times New Roman;fontSize=50;hachureGap=4;fontSource=https://fonts.googleapis.com/css?family=Architects+Daughter;" parent="1" vertex="1">
          <mxGeometry x="620" y="1010" width="120" height="120" as="geometry" />
        </mxCell>
        <mxCell id="Aoa-woAd7rRabKDpotsu-25" value="" style="ellipse;whiteSpace=wrap;html=1;aspect=fixed;strokeWidth=7;fillColor=none;strokeColor=#9673a6;fontFamily=Times New Roman;fontSize=50;hachureGap=4;fontSource=https://fonts.googleapis.com/css?family=Architects+Daughter;" parent="1" vertex="1">
          <mxGeometry x="1090" y="1210.0000000000002" width="120" height="120" as="geometry" />
        </mxCell>
        <mxCell id="Aoa-woAd7rRabKDpotsu-22" value="" style="ellipse;whiteSpace=wrap;html=1;aspect=fixed;strokeWidth=7;fillColor=none;strokeColor=#9673a6;fontFamily=Times New Roman;fontSize=50;hachureGap=4;fontSource=https://fonts.googleapis.com/css?family=Architects+Daughter;" parent="1" vertex="1">
          <mxGeometry x="860" y="1110" width="120" height="120" as="geometry" />
        </mxCell>
        <mxCell id="Ww7HsUTpg0LvWUgYdzWg-2" value="&lt;font face=&quot;Times New Roman&quot;&gt;&lt;span style=&quot;font-size: 35px;&quot;&gt;属性&lt;/span&gt;&lt;/font&gt;" style="text;html=1;align=center;verticalAlign=middle;resizable=0;points=[];autosize=1;strokeColor=none;fillColor=none;fontFamily=Architects Daughter;fontSource=https://fonts.googleapis.com/css?family=Architects+Daughter;rotation=25;" vertex="1" parent="1">
          <mxGeometry x="760.0011431703" y="1060.0007621135333" width="90" height="60" as="geometry" />
        </mxCell>
        <mxCell id="Ww7HsUTpg0LvWUgYdzWg-5" value="&lt;font face=&quot;Times New Roman&quot;&gt;&lt;span style=&quot;font-size: 35px;&quot;&gt;同义&lt;/span&gt;&lt;/font&gt;" style="text;html=1;align=center;verticalAlign=middle;resizable=0;points=[];autosize=1;strokeColor=none;fillColor=none;fontFamily=Architects Daughter;fontSource=https://fonts.googleapis.com/css?family=Architects+Daughter;rotation=-30;" vertex="1" parent="1">
          <mxGeometry x="1002.138400585378" y="1292.8457942155571" width="90" height="60" as="geometry" />
        </mxCell>
        <mxCell id="Aoa-woAd7rRabKDpotsu-26" value="" style="ellipse;whiteSpace=wrap;html=1;aspect=fixed;strokeWidth=7;fillColor=none;strokeColor=#9673a6;fontFamily=Times New Roman;fontSize=50;hachureGap=4;fontSource=https://fonts.googleapis.com/css?family=Architects+Daughter;" parent="1" vertex="1">
          <mxGeometry x="910.0000000000001" y="1360.0000000000002" width="120" height="120" as="geometry" />
        </mxCell>
        <mxCell id="Ww7HsUTpg0LvWUgYdzWg-6" value="&lt;font face=&quot;Times New Roman&quot;&gt;&lt;span style=&quot;font-size: 38px;&quot;&gt;&lt;b&gt;除号&lt;/b&gt;&lt;/span&gt;&lt;/font&gt;" style="text;html=1;align=center;verticalAlign=middle;resizable=0;points=[];autosize=1;strokeColor=none;fillColor=none;fontFamily=Architects Daughter;fontSource=https://fonts.googleapis.com/css?family=Architects+Daughter;" vertex="1" parent="1">
          <mxGeometry x="1100" y="1241.43" width="100" height="60" as="geometry" />
        </mxCell>
        <mxCell id="Ww7HsUTpg0LvWUgYdzWg-8" value="&lt;font face=&quot;Times New Roman&quot;&gt;&lt;span style=&quot;font-size: 35px;&quot;&gt;先决&lt;/span&gt;&lt;/font&gt;" style="text;html=1;align=center;verticalAlign=middle;resizable=0;points=[];autosize=1;strokeColor=none;fillColor=none;fontFamily=Architects Daughter;fontSource=https://fonts.googleapis.com/css?family=Architects+Daughter;rotation=-55;" vertex="1" parent="1">
          <mxGeometry x="529.9957942155572" y="1131.4184005853783" width="90" height="60" as="geometry" />
        </mxCell>
        <mxCell id="Aoa-woAd7rRabKDpotsu-21" value="" style="ellipse;whiteSpace=wrap;html=1;aspect=fixed;strokeWidth=7;fillColor=none;strokeColor=#9673a6;fontFamily=Times New Roman;fontSize=50;hachureGap=4;fontSource=https://fonts.googleapis.com/css?family=Architects+Daughter;" parent="1" vertex="1">
          <mxGeometry x="835.0000000000001" y="850.0000000000001" width="120" height="120" as="geometry" />
        </mxCell>
      </root>
    </mxGraphModel>
  </diagram>
</mxfile>
